<svg width="20" height="20" viewBox="0 0 20 20" fill="none" xmlns="http://www.w3.org/2000/svg">
<g opacity="0.5">
<path d="M9.99996 18.3333C14.6025 18.3333 18.3333 14.6025 18.3333 10C18.3333 5.3975 14.6025 1.66667 9.99996 1.66667C5.39746 1.66667 1.66663 5.3975 1.66663 10C1.66663 14.6025 5.39746 18.3333 9.99996 18.3333Z" stroke="black" stroke-width="1.5" stroke-linecap="round" stroke-linejoin="round"/>
<path d="M11.9442 15.8333V14.2808C11.965 14.0225 11.9292 13.7642 11.8392 13.52C11.7486 13.2757 11.6065 13.0537 11.4225 12.8692C13.1667 12.68 15 12.0358 15 9.0825C14.9984 8.32338 14.6992 7.59515 14.1667 7.05417C14.4201 6.39426 14.4022 5.66087 14.1167 5.01417C14.1167 5.01417 13.4608 4.825 11.9442 5.815C10.6698 5.47905 9.33019 5.47905 8.05585 5.815C6.53918 4.825 5.88335 5.015 5.88335 5.015C5.59833 5.66122 5.58035 6.39392 5.83335 7.05333C5.29711 7.59832 4.99763 8.33293 5.00001 9.0975C5.00001 12.03 6.83335 12.6733 8.57751 12.8842C8.39555 13.0671 8.25465 13.2867 8.16418 13.5283C8.07437 13.7682 8.03741 14.0246 8.05585 14.28V15.8333" stroke="black" stroke-width="1.5" stroke-linecap="round" stroke-linejoin="round"/>
<path d="M8.05579 14.7517C6.38913 15.2775 4.99996 14.7517 4.16663 13.1283" stroke="black" stroke-width="1.5" stroke-linecap="round" stroke-linejoin="round"/>
</g>
</svg>
