<svg width="18" height="16" viewBox="0 0 18 16" fill="none" xmlns="http://www.w3.org/2000/svg">
<path d="M17.0703 0.476562C16.8969 0.32963 16.6869 0.232428 16.4627 0.195286C16.2385 0.158145 16.0084 0.182452 15.7969 0.265624L1.37498 5.92969C1.12203 6.02606 0.907762 6.20291 0.765183 6.43302C0.622604 6.66312 0.559617 6.93371 0.585921 7.20312C0.609388 7.47243 0.719526 7.72687 0.899821 7.92829C1.08012 8.12972 1.32085 8.26726 1.58592 8.32031L5.24998 9.04687V13.625C5.24985 13.8727 5.3233 14.1148 5.461 14.3206C5.5987 14.5265 5.79446 14.6868 6.02342 14.7812C6.17495 14.8422 6.33664 14.874 6.49998 14.875C6.66416 14.8756 6.8268 14.8434 6.97838 14.7803C7.12997 14.7173 7.26746 14.6246 7.38279 14.5078L9.41404 12.4844L12.4844 15.1875C12.711 15.3874 13.0024 15.4984 13.3047 15.5C13.4376 15.5027 13.5699 15.4816 13.6953 15.4375C13.9015 15.3723 14.087 15.2543 14.2336 15.0954C14.3802 14.9365 14.4828 14.742 14.5312 14.5312L17.4687 1.70312C17.5201 1.48177 17.5101 1.25061 17.4399 1.03449C17.3697 0.818377 17.2419 0.625486 17.0703 0.476562ZM5.72654 7.86718L1.83592 7.09375L12.7422 2.80469L5.72654 7.86718ZM6.49998 13.625V9.92187L8.46873 11.6562L6.49998 13.625ZM13.3125 14.25L6.87498 8.58593L16.1484 1.89062L13.3125 14.25Z" fill="black"/>
</svg>
